<?xml version="1.0" standalone="no"?>
<!DOCTYPE svg PUBLIC "-//W3C//DTD SVG 20010904//EN"
 "http://www.w3.org/TR/2001/REC-SVG-20010904/DTD/svg10.dtd">
<svg version="1.0" xmlns="http://www.w3.org/2000/svg"
 width="736.000000pt" height="736.000000pt" viewBox="0 0 736.000000 736.000000"
 preserveAspectRatio="xMidYMid meet">
<metadata>
Created by potrace 1.14, written by Peter Selinger 2001-2017
</metadata>
<g transform="translate(0.000000,736.000000) scale(0.100000,-0.100000)"
fill="#000000" stroke="none">
<path d="M3590 6862 c0 -4 -32 -8 -70 -8 -39 1 -70 -2 -70 -5 0 -4 -19 -7 -42
-8 -90 -3 -118 -6 -118 -12 0 -3 -17 -6 -37 -7 -68 -2 -73 -3 -73 -10 0 -4
-18 -7 -40 -6 -22 0 -40 -2 -40 -6 0 -4 -6 -7 -12 -7 -50 -4 -74 -8 -84 -15
-6 -4 -25 -9 -43 -10 -18 -1 -35 -6 -37 -10 -3 -4 -18 -8 -34 -8 -16 0 -32 -5
-35 -10 -4 -6 -10 -8 -15 -5 -5 3 -16 -2 -24 -11 -9 -8 -16 -10 -16 -4 0 7 -6
8 -19 1 -10 -6 -21 -7 -25 -4 -3 3 -6 1 -6 -6 0 -8 -7 -11 -15 -7 -8 3 -15 1
-15 -5 0 -6 -4 -8 -8 -5 -5 3 -21 -2 -36 -10 -16 -7 -37 -14 -47 -14 -11 0
-19 -5 -19 -11 0 -5 -4 -8 -8 -5 -5 3 -20 -1 -35 -9 -15 -8 -27 -11 -27 -8 0
3 -7 0 -15 -7 -8 -7 -15 -9 -15 -4 0 5 -4 3 -9 -4 -5 -8 -20 -15 -34 -15 -14
-1 -23 -5 -21 -8 2 -3 -15 -12 -36 -19 -22 -7 -40 -18 -40 -23 0 -6 -3 -8 -6
-4 -3 3 -50 -17 -104 -44 -53 -27 -103 -49 -109 -49 -7 0 -10 -4 -7 -8 2 -4
-22 -21 -55 -37 -32 -15 -59 -32 -59 -37 0 -5 -5 -6 -10 -3 -6 3 -10 2 -10 -3
0 -5 -9 -12 -21 -15 -12 -3 -18 -10 -14 -16 3 -7 0 -8 -9 -5 -9 3 -16 1 -16
-5 0 -6 -5 -11 -11 -11 -11 0 -79 -48 -91 -65 -4 -5 -8 -6 -8 -2 0 4 -10 -1
-22 -12 -11 -11 -26 -18 -31 -14 -6 3 -7 1 -3 -6 4 -6 0 -14 -11 -18 -10 -4
-20 -9 -23 -12 -18 -21 -111 -91 -120 -91 -6 0 -8 -4 -5 -10 3 -5 -1 -10 -9
-10 -9 0 -16 -7 -16 -15 0 -8 -5 -15 -11 -15 -16 0 -79 -57 -72 -64 4 -3 -1
-6 -10 -6 -9 0 -17 -7 -17 -15 0 -8 -6 -15 -13 -15 -17 0 -47 -36 -39 -46 4
-4 2 -4 -4 -1 -11 6 -61 -42 -57 -55 2 -4 -6 -10 -17 -13 -11 -4 -20 -10 -20
-14 0 -4 -20 -29 -45 -55 -25 -27 -45 -51 -45 -55 0 -3 -9 -12 -21 -19 -12 -7
-18 -16 -15 -19 3 -4 -2 -12 -12 -19 -10 -7 -31 -32 -47 -56 -17 -24 -40 -53
-52 -64 -12 -12 -20 -24 -17 -26 2 -3 -7 -17 -20 -31 -14 -15 -23 -27 -20 -27
3 0 -6 -14 -20 -31 -14 -17 -26 -37 -26 -45 0 -9 -4 -13 -9 -9 -5 3 -12 1 -16
-5 -3 -5 -1 -10 5 -10 6 0 -1 -12 -15 -27 -14 -16 -28 -38 -31 -50 -4 -13 -11
-20 -17 -16 -6 3 -7 1 -3 -5 4 -6 -1 -20 -11 -32 -10 -11 -17 -23 -15 -26 2
-2 -6 -16 -18 -31 -11 -14 -20 -32 -20 -39 0 -8 -5 -14 -11 -14 -6 0 -9 -9 -6
-19 3 -14 1 -18 -9 -14 -9 3 -12 -2 -9 -15 2 -11 -2 -23 -9 -25 -7 -3 -18 -23
-25 -46 -6 -23 -17 -41 -23 -41 -6 0 -8 -3 -5 -6 3 -4 1 -16 -5 -28 -7 -11
-13 -24 -14 -28 -1 -5 -3 -11 -4 -15 -1 -5 -2 -11 -1 -15 0 -5 -4 -8 -10 -8
-5 0 -8 -4 -4 -9 3 -5 0 -13 -6 -16 -5 -4 -8 -13 -5 -20 2 -7 -2 -16 -10 -19
-9 -3 -13 -10 -9 -15 3 -5 1 -12 -4 -15 -8 -5 -25 -63 -22 -78 0 -5 -3 -8 -7
-8 -5 0 -9 -6 -10 -12 -1 -15 -10 -52 -12 -55 -2 -2 -4 -7 -5 -13 -1 -5 -4
-12 -5 -15 -1 -3 -4 -9 -5 -15 -1 -5 -4 -13 -5 -17 -1 -5 -2 -12 -1 -17 1 -4
-3 -14 -8 -20 -6 -7 -13 -23 -15 -37 -3 -13 -5 -24 -6 -24 -3 0 -12 -41 -13
-62 0 -13 -4 -23 -7 -23 -3 0 -6 -8 -7 -17 -1 -10 -4 -31 -8 -48 -4 -16 -7
-36 -7 -42 -1 -7 -6 -13 -11 -13 -5 0 -4 -7 3 -15 7 -8 8 -15 3 -15 -9 0 -11
-12 -16 -84 -1 -19 -6 -32 -11 -29 -4 3 -5 -4 -1 -16 3 -11 2 -21 -3 -21 -5 0
-8 -16 -5 -35 3 -25 1 -35 -9 -35 -10 0 -9 -3 2 -10 8 -5 11 -10 5 -10 -5 0
-11 -21 -11 -48 -1 -26 -4 -66 -7 -89 -4 -30 -2 -43 6 -43 8 0 7 -3 -2 -9 -7
-5 -10 -14 -7 -20 4 -6 1 -11 -6 -11 -8 0 -9 -3 -3 -8 11 -8 14 -112 4 -112
-10 0 -5 -34 6 -42 6 -5 5 -8 -3 -8 -8 0 -10 -5 -6 -12 10 -16 12 -58 2 -58
-4 0 -4 -10 0 -22 4 -13 7 -38 6 -56 -2 -20 2 -30 8 -26 7 5 8 2 2 -7 -10 -16
-13 -69 -4 -69 3 0 5 -19 5 -42 0 -24 1 -47 3 -52 4 -7 12 -67 14 -106 0 -8 5
-21 11 -27 6 -9 6 -13 -2 -13 -7 0 -8 -8 -1 -26 6 -14 8 -30 4 -35 -3 -5 -1
-9 3 -9 5 0 10 -16 11 -37 2 -20 5 -40 8 -45 5 -8 15 -66 17 -95 0 -7 4 -13 7
-13 4 0 8 -11 9 -25 3 -48 4 -55 13 -55 4 0 8 -11 8 -24 0 -14 5 -28 10 -31 8
-5 7 -12 -2 -23 -11 -13 -11 -14 1 -7 11 6 13 4 8 -9 -4 -9 -1 -19 6 -22 6 -2
13 -18 14 -35 1 -17 7 -37 13 -44 5 -6 7 -15 3 -18 -3 -4 -1 -7 5 -7 6 0 9 -7
6 -15 -4 -8 -2 -15 3 -15 5 0 10 -7 11 -15 1 -8 3 -22 4 -30 1 -8 5 -15 10
-15 5 0 7 -4 3 -9 -3 -5 0 -13 6 -16 5 -4 8 -13 6 -19 -3 -7 3 -19 14 -27 10
-7 19 -19 19 -26 0 -7 5 -13 12 -13 6 0 8 -3 5 -7 -4 -3 -2 -12 4 -20 6 -7 8
-13 3 -13 -5 0 -3 -4 4 -9 7 -4 14 -18 15 -29 1 -12 5 -22 9 -22 4 0 8 -7 8
-15 0 -8 5 -15 12 -15 6 0 9 -3 5 -6 -3 -4 1 -21 10 -38 10 -17 16 -34 15 -38
-1 -5 3 -8 9 -8 5 0 7 -5 4 -10 -3 -5 -1 -10 5 -10 6 0 8 -4 5 -10 -3 -5 -1
-10 4 -10 6 0 11 -7 11 -15 0 -8 5 -15 10 -15 6 0 10 -6 10 -14 0 -7 11 -29
24 -49 13 -19 22 -37 20 -40 -2 -2 6 -15 19 -29 13 -14 21 -31 19 -38 -3 -7 0
-10 7 -6 7 5 11 -1 11 -13 0 -12 5 -21 10 -21 6 0 15 -10 21 -22 17 -39 59
-104 59 -93 1 6 10 -7 21 -27 11 -21 24 -38 29 -38 6 0 10 -7 10 -15 0 -9 7
-18 15 -21 8 -4 15 -15 15 -26 0 -10 4 -17 9 -13 6 3 15 -5 22 -17 7 -13 20
-30 30 -39 10 -9 16 -19 12 -23 -3 -3 1 -6 10 -6 9 0 16 -3 15 -7 -2 -5 9 -21
24 -38 15 -16 35 -40 46 -52 10 -13 22 -20 26 -16 3 3 6 0 6 -9 0 -17 33 -51
43 -43 4 3 5 2 3 -1 -6 -8 66 -80 77 -76 5 1 5 -2 2 -8 -4 -7 2 -14 14 -17 12
-3 21 -10 21 -15 0 -11 25 -38 35 -38 4 0 20 -15 36 -32 44 -50 58 -63 123
-111 15 -12 36 -30 44 -39 9 -10 22 -18 29 -18 7 0 13 -4 13 -10 0 -5 7 -10
15 -10 8 0 15 -4 15 -8 0 -5 16 -17 35 -28 19 -10 35 -22 35 -27 0 -4 4 -6 8
-3 5 3 14 -4 22 -14 8 -10 17 -17 22 -14 4 3 11 -2 14 -10 3 -9 10 -14 14 -11
5 3 15 -2 23 -10 9 -8 20 -15 25 -15 6 0 12 -7 16 -15 3 -8 12 -12 21 -9 8 3
15 2 15 -2 0 -5 21 -20 48 -34 26 -13 50 -28 53 -32 3 -5 15 -10 27 -13 12 -2
29 -11 38 -20 9 -8 20 -13 25 -10 5 4 9 1 9 -5 0 -6 5 -8 10 -5 6 3 10 2 10
-3 0 -9 21 -18 59 -27 8 -2 18 -10 22 -17 5 -7 9 -9 9 -4 0 4 11 1 25 -8 14
-9 25 -14 25 -10 0 4 7 1 15 -6 8 -7 15 -9 15 -6 0 4 7 0 16 -8 8 -9 20 -13
26 -10 6 4 14 1 18 -5 4 -7 17 -13 28 -14 12 -1 22 -5 22 -9 0 -4 3 -7 8 -7 4
1 9 0 12 -1 3 -1 12 -3 20 -5 8 -2 46 -15 85 -29 38 -14 80 -26 92 -26 13 0
23 -5 23 -12 0 -6 3 -9 6 -6 3 4 20 2 37 -3 46 -14 69 -20 92 -24 11 -2 21 -4
23 -5 1 -2 5 -3 10 -4 4 -1 13 -5 20 -9 7 -5 12 -3 12 4 0 8 4 8 15 -1 8 -7
15 -9 15 -5 0 4 6 2 14 -4 11 -9 15 -9 19 1 4 9 6 9 6 -2 1 -11 12 -15 41 -14
23 0 43 -3 45 -7 3 -4 28 -7 57 -7 28 -1 54 -5 57 -9 3 -5 31 -9 61 -11 64 -3
135 -9 135 -12 0 -1 102 -3 228 -4 125 -1 227 1 227 4 0 3 9 6 20 6 11 0 20
-4 20 -9 0 -4 6 -5 13 0 6 4 20 8 30 9 9 1 18 2 20 4 1 1 27 3 57 4 30 1 61 5
68 9 6 5 12 6 12 4 0 -3 16 -1 35 3 24 5 35 4 35 -4 0 -6 4 -5 9 3 5 8 22 15
38 16 15 1 38 3 51 3 13 1 21 5 18 10 -2 4 14 7 36 6 22 0 45 4 51 10 7 6 27
11 45 11 17 -1 32 3 32 7 0 4 14 8 31 8 16 0 28 4 25 9 -4 5 2 8 11 6 10 -1
23 0 28 4 6 3 17 6 25 8 24 3 92 24 124 38 16 7 38 12 48 10 10 -2 16 0 13 4
-4 8 14 17 53 26 8 2 28 10 45 18 18 8 58 24 90 37 31 12 57 27 57 33 0 6 3 7
6 4 4 -3 16 -1 28 5 11 7 25 11 30 10 5 -2 12 1 15 5 3 4 44 28 91 52 47 24
87 47 90 51 3 4 16 11 30 15 14 4 30 15 37 24 7 9 13 12 13 8 0 -4 6 -3 13 3
17 14 118 80 123 80 2 0 12 6 21 14 47 38 113 85 113 80 0 -2 11 5 25 18 13
13 30 28 37 33 103 83 137 112 161 136 15 16 27 27 27 25 0 -13 216 216 310
329 23 28 51 60 61 73 10 12 19 26 19 31 0 5 3 11 8 13 10 4 64 78 57 78 -3 0
0 6 7 14 7 8 15 12 18 11 3 -2 17 19 30 47 13 27 29 52 36 55 7 3 16 18 19 34
4 16 10 29 15 29 4 0 24 32 44 70 21 39 42 70 49 70 8 0 8 3 -1 9 -11 6 -10
10 3 15 10 3 15 12 11 21 -3 8 -2 15 3 15 8 0 36 50 33 62 -1 3 5 12 13 18 8
7 15 20 15 29 0 9 7 25 15 35 8 11 15 26 15 33 0 7 11 36 24 65 24 54 37 85
42 103 1 6 9 26 18 46 8 20 12 39 9 43 -4 3 -1 6 4 6 6 0 14 19 18 43 4 23 10
47 14 52 3 6 6 13 7 18 1 4 2 8 4 10 2 3 10 39 12 60 1 9 6 17 11 17 5 0 7 7
3 15 -3 8 -1 15 3 15 5 0 7 9 4 20 -3 11 -1 20 5 20 6 0 9 8 8 18 -2 9 2 33 8
52 7 19 12 42 11 50 -1 8 2 20 5 25 4 6 7 25 8 44 2 19 6 39 9 44 4 6 8 29 9
52 1 22 5 51 9 65 3 14 7 45 8 70 1 25 6 51 10 58 5 7 4 12 -3 12 -7 0 -8 6
-1 18 12 23 13 520 0 527 -5 4 -5 13 1 25 6 11 6 21 1 24 -5 4 -9 21 -9 39 1
17 -2 49 -7 71 -4 21 -8 57 -10 80 -1 23 -4 47 -8 52 -3 6 -7 27 -9 47 -1 21
-5 37 -8 37 -3 0 -7 12 -8 28 -4 39 -7 56 -13 67 -4 6 -5 18 -4 28 2 9 -1 17
-7 17 -6 0 -8 7 -4 15 3 8 1 15 -5 15 -6 0 -8 4 -5 9 3 5 -2 33 -11 62 -9 30
-16 60 -14 67 1 6 -2 12 -7 12 -5 0 -9 6 -10 13 0 6 -3 19 -5 27 -16 50 -20
60 -28 60 -5 0 -6 7 -3 15 4 9 0 15 -7 15 -11 0 -11 2 1 10 12 8 12 10 -2 15
-10 4 -15 15 -13 26 2 10 -1 19 -7 19 -5 0 -8 6 -5 14 3 8 1 16 -4 18 -5 2
-11 13 -12 25 0 13 -7 25 -14 27 -7 3 -10 12 -7 21 4 8 1 15 -7 15 -7 0 -10 3
-6 6 3 3 -6 27 -19 54 -13 26 -24 53 -24 59 0 6 -5 11 -11 11 -5 0 -8 4 -4 9
3 5 1 12 -5 16 -6 4 -8 11 -5 16 4 5 1 9 -4 9 -6 0 -11 7 -11 15 0 8 -5 15
-11 15 -6 0 -9 7 -5 15 3 8 2 15 -2 15 -4 0 -21 26 -37 58 -17 31 -36 63 -43
70 -7 8 -10 18 -7 23 4 5 1 9 -4 9 -6 0 -11 6 -11 13 0 7 -9 23 -20 35 -11 12
-20 26 -20 32 0 5 -4 10 -10 10 -5 0 -10 7 -10 15 0 8 -4 15 -10 15 -5 0 -10
6 -10 13 0 7 -9 23 -20 35 -11 12 -20 24 -20 27 0 3 -9 15 -20 27 -11 12 -20
28 -20 35 0 8 -4 11 -10 8 -9 -6 -14 8 -11 28 0 4 -6 7 -15 7 -8 0 -13 4 -10
8 3 5 -4 15 -15 22 -10 8 -19 19 -19 25 0 6 -9 17 -20 25 -11 8 -20 19 -20 25
0 6 -9 17 -19 25 -11 7 -18 17 -15 22 3 4 -2 8 -10 8 -9 0 -16 4 -16 9 0 5
-40 50 -90 101 -49 51 -87 96 -84 101 3 5 1 9 -5 9 -5 0 -25 14 -43 30 -18 17
-36 30 -41 30 -4 0 -5 5 -2 10 3 6 1 10 -5 10 -11 0 -36 20 -96 78 -13 12 -26
22 -29 22 -3 0 -17 12 -30 26 -14 15 -25 23 -25 18 0 -5 -4 -4 -8 1 -11 15
-102 87 -102 81 0 -6 -28 15 -55 41 -7 7 -15 9 -19 6 -3 -3 -8 2 -12 11 -3 9
-12 16 -19 16 -8 0 -20 6 -27 13 -15 16 -59 41 -71 42 -4 0 -11 5 -15 11 -4 5
-24 18 -44 27 -21 10 -38 23 -38 29 0 6 -3 9 -6 5 -3 -3 -22 3 -41 14 -19 11
-39 16 -45 13 -6 -4 -8 -3 -5 3 7 10 -49 43 -72 43 -6 0 -11 4 -11 10 0 5 -4
9 -8 7 -4 -1 -30 9 -57 22 -94 45 -146 65 -162 62 -7 -1 -13 3 -13 9 0 5 -9
10 -20 10 -11 0 -20 5 -20 11 0 5 -3 8 -7 6 -5 -3 -19 0 -33 6 -14 5 -31 11
-38 13 -8 1 -21 6 -30 10 -9 4 -28 9 -42 11 -13 2 -30 8 -36 14 -6 5 -14 6
-17 2 -4 -3 -7 -2 -7 3 0 5 -14 11 -31 12 -17 1 -40 7 -50 13 -11 5 -24 7 -29
4 -6 -3 -10 -2 -10 3 0 5 -6 9 -12 10 -45 6 -73 10 -73 12 0 3 -25 7 -62 12
-13 1 -23 5 -23 8 0 3 -10 6 -22 7 -13 0 -43 4 -68 8 -76 13 -188 26 -223 26
-9 0 -16 3 -13 7 2 4 -24 7 -57 6 -34 0 -68 4 -76 10 -11 8 -13 8 -8 -1 6 -9
-1 -11 -22 -8 -17 2 -35 6 -40 9 -5 4 -11 0 -14 -6 -3 -10 -7 -10 -19 -1 -11
10 -17 10 -26 1 -9 -9 -12 -9 -12 1 0 11 -3 11 -15 1 -8 -7 -15 -8 -15 -3 0
12 -30 10 -50 -2 -9 -5 -15 -4 -18 4 -3 9 -8 9 -20 -1 -13 -11 -15 -11 -7 2 6
12 5 13 -5 3 -9 -8 -19 -9 -32 -2 -10 5 -18 6 -18 1z"/>
</g>
</svg>
