<svg width="30" height="30" viewBox="0 0 30 30" fill="none" xmlns="http://www.w3.org/2000/svg">
<mask id="mask0_754_11" style="mask-type:luminance" maskUnits="userSpaceOnUse" x="0" y="0" width="30" height="30">
<path d="M19.9866 0H9.99331C4.47416 0 0 4.47715 0 10V20C0 25.5228 4.47416 30 9.99331 30H19.9866C25.5058 30 29.9799 25.5228 29.9799 20V10C29.9799 4.47715 25.5058 0 19.9866 0Z" fill="white"/>
</mask>
<g mask="url(#mask0_754_11)">
<path d="M29.9799 0H0V30H29.9799V0Z" fill="url(#paint0_linear_754_11)"/>
<path fill-rule="evenodd" clip-rule="evenodd" d="M9.85889 9.00828V20.9917H12.9906V16.5213H13.9267C14.1991 16.5213 14.4374 16.5723 14.6416 16.6743C14.8572 16.7763 15.033 16.9463 15.1692 17.1842L17.2457 20.9917H20.6838L18.8115 17.5922C18.4257 16.8896 17.9151 16.4533 17.2797 16.2833C18.1307 16.0454 18.7775 15.6261 19.22 15.0255C19.6739 14.4136 19.9008 13.66 19.9008 12.7648C19.9008 11.5863 19.5264 10.6684 18.7775 10.0111C18.04 9.34256 16.9904 9.00828 15.6287 9.00828H9.85889Z" fill="url(#paint1_linear_754_11)"/>
<path fill-rule="evenodd" clip-rule="evenodd" d="M13.1994 11.3333C13.4301 11.1026 13.7936 11.09 14.4962 11.0893V11.9082C14.4232 11.8497 14.337 11.806 14.2418 11.7822C13.8832 11.6925 13.5584 12.0175 13.648 12.3764C13.6718 12.4717 13.7155 12.5579 13.774 12.6309H12.9556C12.9563 11.9279 12.9688 11.5641 13.1994 11.3333ZM13.1994 14.1786C12.9688 13.9478 12.9563 13.584 12.9556 12.8809H14.3152C14.2587 13.1198 14.0443 13.2976 13.7883 13.2976C13.7193 13.2976 13.6634 13.3536 13.6634 13.4226C13.6634 13.4917 13.7193 13.5476 13.7883 13.5476C14.0981 13.5476 14.3663 13.3694 14.4962 13.1099V14.4226C13.7936 14.4219 13.4301 14.4093 13.1994 14.1786ZM14.746 14.4226C15.4486 14.4219 15.8121 14.4093 16.0428 14.1786C16.2734 13.9478 16.2859 13.584 16.2867 12.8809H14.9271C14.9835 13.1198 15.1979 13.2976 15.4539 13.2976C15.5229 13.2976 15.5788 13.3536 15.5788 13.4226C15.5788 13.4917 15.5229 13.5476 15.4539 13.5476C15.1441 13.5476 14.8759 13.3694 14.746 13.1099V14.4226ZM16.0428 11.3333C16.2734 11.5641 16.2859 11.9279 16.2867 12.6309H15.4682C15.5267 12.5579 15.5704 12.4717 15.5942 12.3764C15.6839 12.0175 15.359 11.6925 15.0004 11.7822C14.9052 11.806 14.819 11.8497 14.746 11.9082V11.0893C15.4486 11.09 15.8121 11.1026 16.0428 11.3333ZM14.1812 12.0247C14.3663 12.071 14.4962 12.2375 14.4962 12.4284V12.6309H14.2938C14.103 12.6309 13.9367 12.501 13.8904 12.3157C13.8464 12.14 14.0055 11.9808 14.1812 12.0247ZM14.746 12.6309V12.4284C14.746 12.2375 14.8759 12.071 15.0611 12.0247C15.2367 11.9808 15.3958 12.14 15.3519 12.3157C15.3055 12.501 15.1392 12.6309 14.9484 12.6309H14.746Z" fill="url(#paint2_linear_754_11)"/>
</g>
<defs>
<linearGradient id="paint0_linear_754_11" x1="0" y1="0" x2="36.178" y2="14.1225" gradientUnits="userSpaceOnUse">
<stop stop-color="#00FFA3"/>
<stop offset="1" stop-color="#00C67E"/>
</linearGradient>
<linearGradient id="paint1_linear_754_11" x1="9.85889" y1="9.00828" x2="23.2455" y2="13.7318" gradientUnits="userSpaceOnUse">
<stop stop-color="#292A3E"/>
<stop offset="1" stop-color="#090816"/>
</linearGradient>
<linearGradient id="paint2_linear_754_11" x1="12.9556" y1="11.0893" x2="16.9753" y2="12.6585" gradientUnits="userSpaceOnUse">
<stop stop-color="#00FFA3"/>
<stop offset="1" stop-color="#00C67E"/>
</linearGradient>
</defs>
</svg>
