<svg width="295" height="341" viewBox="0 0 295 341" fill="none" xmlns="http://www.w3.org/2000/svg">
<path d="M294.943 202.401C294.333 185.434 290.045 168.802 282.375 153.655C274.423 138.281 263.505 124.635 250.252 113.502C234.942 100.684 217.181 91.1204 198.053 85.3947C186.865 82.044 176.48 76.4418 167.536 68.9319L166.493 68.0485C163.709 65.3753 161.547 62.1231 160.159 58.522C158.772 54.9209 158.192 51.0588 158.462 47.209C158.877 42.8486 160.474 38.6839 163.079 35.163C170.64 24.4422 181.041 16.0432 193.114 10.9105L194.881 10.0673C196.175 9.59871 197.229 8.63534 197.813 7.38909C198.397 6.14285 198.461 4.71581 197.993 3.42193C197.524 2.12804 196.561 1.07328 195.315 0.489692C194.068 -0.0938976 192.641 -0.158516 191.347 0.310053C189.949 0.768584 188.603 1.37428 187.332 2.11695C180.885 6.01932 173.699 8.54102 166.228 9.52248C158.756 10.5039 151.162 9.92377 143.926 7.8187C139.941 6.72543 135.757 6.56238 131.698 7.3421C127.639 8.12183 123.814 9.82351 120.517 12.3159C106.263 22.5549 99.6374 47.0484 111.724 61.3028C114.488 64.4456 116.237 68.3507 116.743 72.5055C116.904 74.5685 116.308 76.6194 115.066 78.2748C113.824 79.9301 112.022 81.0766 109.997 81.4998C86.3011 86.4131 64.1641 97.0405 45.5109 112.458C32.0352 123.661 20.9593 137.468 12.9467 153.053C5.1129 168.326 0.713753 185.128 0.0575131 202.281C-0.479356 220.112 2.74743 237.856 9.52755 254.357C16.3077 270.857 26.4889 285.744 39.4076 298.046C53.5006 311.628 70.152 322.274 88.3946 329.366C93.1728 331.012 97.9109 332.779 102.729 334.184C107.548 335.589 112.567 336.794 117.586 337.717C122.605 338.641 127.705 339.203 132.804 339.765L148.143 340.528L163.441 339.685C168.5 339.123 173.559 338.32 178.619 337.557C183.678 336.794 188.496 335.188 193.435 333.983C198.374 332.779 202.952 330.731 207.69 329.084C225.81 321.918 242.316 311.201 256.235 297.564C268.959 285.273 278.975 270.459 285.64 254.071C292.306 237.684 295.474 220.084 294.943 202.401Z" fill="darkcyan"/>
<path d="M73.6581 267.891C62.983 260.326 54.0961 250.513 47.6235 239.143C41.1508 227.772 37.2498 215.121 36.1952 202.08C35.5718 188.656 37.8414 175.255 42.8502 162.785C47.859 150.315 55.49 139.067 65.2259 129.804C74.051 121.086 84.2528 113.882 95.4211 108.483C95.7471 108.318 96.1177 108.264 96.4771 108.328C96.8366 108.392 97.1656 108.571 97.4145 108.838C97.6635 109.106 97.8191 109.446 97.8579 109.809C97.8966 110.172 97.8165 110.538 97.6296 110.852C84.4995 131.25 63.9009 166.464 63.0978 198.346C62.8841 213.85 67.211 229.078 75.5453 242.153C75.8991 242.649 76.3968 243.024 76.9709 243.228C77.545 243.431 78.1679 243.454 78.7551 243.291C79.3423 243.129 79.8654 242.791 80.2537 242.321C80.642 241.852 80.8766 241.274 80.9258 240.667C81.7755 228.906 85.588 217.552 92.0081 207.661C92.2619 207.24 92.651 206.918 93.1119 206.748C93.5727 206.577 94.0778 206.568 94.5444 206.722C95.011 206.876 95.4115 207.184 95.6803 207.595C95.949 208.007 96.07 208.497 96.0234 208.986C95.0999 222.438 94.337 247.533 95.3007 269.457C95.3485 270.639 95.0771 271.812 94.5148 272.853C93.9526 273.894 93.1204 274.764 92.1056 275.372C91.0908 275.98 89.931 276.304 88.748 276.308C87.565 276.313 86.4026 275.999 85.3828 275.4C81.3217 273.144 77.4058 270.636 73.6581 267.891Z" fill="#252525"/>
<path d="M261.497 202.2C260.092 228.501 244.994 252.713 223.392 268.333C218.025 272.258 212.329 275.71 206.367 278.652C205.311 279.194 204.128 279.441 202.944 279.366C201.76 279.291 200.618 278.897 199.638 278.227C198.659 277.556 197.88 276.634 197.382 275.556C196.884 274.479 196.686 273.287 196.81 272.107C198.92 250.861 199.162 229.471 197.533 208.183C197.485 207.731 197.583 207.276 197.813 206.884C198.042 206.492 198.391 206.184 198.808 206.005C199.226 205.825 199.689 205.784 200.132 205.887C200.574 205.99 200.972 206.232 201.267 206.577C208.374 214.206 213.313 225.931 213.313 244.843C213.289 245.481 213.471 246.109 213.832 246.635C214.193 247.161 214.714 247.557 215.318 247.764C215.921 247.971 216.575 247.979 217.183 247.785C217.791 247.592 218.321 247.208 218.694 246.69C225.524 235.96 229.948 223.878 231.663 211.275C235.076 167.508 206.969 123.339 196.81 109.005C196.59 108.698 196.48 108.327 196.496 107.95C196.512 107.573 196.654 107.213 196.899 106.926C197.144 106.639 197.478 106.443 197.848 106.369C198.217 106.294 198.601 106.346 198.938 106.515C211.186 112.059 222.391 119.665 232.065 129.001C241.956 138.36 249.707 149.747 254.787 162.382C259.867 175.016 262.156 188.599 261.497 202.2Z" fill="#252525"/>
<path d="M147.539 298.407C161.51 298.407 172.836 252.853 172.836 196.659C172.836 140.465 161.51 94.911 147.539 94.911C133.568 94.911 122.243 140.465 122.243 196.659C122.243 252.853 133.568 298.407 147.539 298.407Z" fill="#252525"/>
</svg>
